<?xml version="1.0" encoding="utf-8" standalone="no"?><!DOCTYPE svg PUBLIC "-//W3C//DTD SVG 20010904//EN" "http://www.w3.org/TR/2001/REC-SVG-20010904/DTD/svg10.dtd"><svg xmlns="http://www.w3.org/2000/svg" width="917" height="750" xmlns:xlink="http://www.w3.org/1999/xlink"><source><![CDATA[Title: Alta estudiante
participant Usuario
participant Formulario
participant App
App->LocalStorage: Pide datos iniciales
LocalStorage-->App: Recibe datos si los hay
Usuario->Formulario: Ingresa nombre
Note over Formulario: Valida nombre
Usuario->Formulario: Ingresa dni
Formulario->App: Busca DNI
App-->Formulario: Avísa si existe el DNI
Note over Formulario: Habilita botón
Formulario-->Usuario: Muestra validación
Usuario->Formulario: Apreta botón agregar
Formulario->App: Envía nombre y DNI
App->Lista HTML: Agrega el nodo
App->LocalStorage: Actualiza los cambios]]></source><desc>Alta estudiante</desc><defs><marker viewBox="0 0 5 5" markerWidth="5" markerHeight="5" orient="auto" refX="5" refY="2.5" id="markerArrowBlock"><path d="M 0 0 L 5 2.5 L 0 5 z"></path></marker><marker viewBox="0 0 9.6 16" markerWidth="4" markerHeight="16" orient="auto" refX="9.6" refY="8" id="markerArrowOpen"><path d="M 9.6,8 1.92,16 0,13.7 5.76,8 0,2.286 1.92,0 9.6,8 z"></path></marker></defs><g class="title"><path d="M10,10C126.3,15.5 55.7,4.5 148.5,10.0C147.2,33.0 149.8,17.8 148.5,42.5C56.4,37.0 74.2,48.0 10.0,42.5C11.3,18.7 8.7,19.3 10.0,10.0" stroke="#000000" fill="#ffffff" style="stroke-width: 2;"></path><text x="15" y="29" style="font-size: 16px; font-family: danielbd;"><tspan x="15">Alta estudiante</tspan></text></g><g class="actor"><path d="M10,52.5C43.4,49.0 24.0,56.0 97.7,52.5C99.4,62.7 96.0,83.9 97.7,95.0C31.0,91.5 25.8,98.5 10.0,95.0C8.3,84.2 11.7,62.7 10.0,52.5" stroke="#000000" fill="#ffffff" style="stroke-width: 2;"></path><text x="20" y="76.5" style="font-size: 16px; font-family: danielbd;"><tspan x="20">Usuario</tspan></text></g><g class="actor"><path d="M10,687.5C26.0,691.0 61.3,684.0 97.7,687.5C99.4,709.7 96.0,697.7 97.7,730.0C74.6,726.5 26.7,733.5 10.0,730.0C8.3,697.7 11.7,694.3 10.0,687.5" stroke="#000000" fill="#ffffff" style="stroke-width: 2;"></path><text x="20" y="711.5" style="font-size: 16px; font-family: danielbd;"><tspan x="20">Usuario</tspan></text></g><path d="M53.9,95.0C30.2,592.7 77.6,328.5 53.9,687.5" stroke="#000000" fill="none" style="stroke-width: 2;"></path><g class="actor"><path d="M201.2265625,52.5C219.5,47.9 261.8,57.1 315.5,52.5C317.2,63.0 313.8,80.4 315.5,95.0C236.3,99.6 290.6,90.4 201.2,95.0C199.5,66.8 202.9,59.3 201.2,52.5" stroke="#000000" fill="#ffffff" style="stroke-width: 2;"></path><text x="211.2265625" y="76.5" style="font-size: 16px; font-family: danielbd;"><tspan x="211.2265625">Formulario</tspan></text></g><g class="actor"><path d="M201.2265625,687.5C288.1,692.1 228.7,682.9 315.5,687.5C313.8,713.5 317.2,697.7 315.5,730.0C254.3,734.6 285.0,725.4 201.2,730.0C199.5,698.0 202.9,715.5 201.2,687.5" stroke="#000000" fill="#ffffff" style="stroke-width: 2;"></path><text x="211.2265625" y="711.5" style="font-size: 16px; font-family: danielbd;"><tspan x="211.2265625">Formulario</tspan></text></g><path d="M258.4,95.0C234.7,592.7 282.1,387.5 258.4,687.5" stroke="#000000" fill="none" style="stroke-width: 2;"></path><g class="actor"><path d="M432.53125,52.5C441.6,54.7 479.1,50.3 487.9,52.5C489.6,82.2 486.2,59.5 487.9,95.0C454.6,92.8 464.9,97.2 432.5,95.0C434.2,59.3 430.8,62.7 432.5,52.5" stroke="#000000" fill="#ffffff" style="stroke-width: 2;"></path><text x="442.53125" y="76.5" style="font-size: 16px; font-family: danielbd;"><tspan x="442.53125">App</tspan></text></g><g class="actor"><path d="M432.53125,687.5C441.4,689.7 479.1,685.3 487.9,687.5C486.2,715.7 489.6,716.0 487.9,730.0C471.1,732.2 474.6,727.8 432.5,730.0C434.2,711.0 430.8,719.6 432.5,687.5" stroke="#000000" fill="#ffffff" style="stroke-width: 2;"></path><text x="442.53125" y="711.5" style="font-size: 16px; font-family: danielbd;"><tspan x="442.53125">App</tspan></text></g><path d="M460.2,95.0C483.9,189.8 436.5,592.7 460.2,687.5" stroke="#000000" fill="none" style="stroke-width: 2;"></path><g class="actor"><path d="M609.4765625,52.5C708.7,57.7 697.1,47.3 740.0,52.5C741.7,84.8 738.3,62.7 740.0,95.0C719.1,89.8 695.4,100.2 609.5,95.0C607.8,62.9 611.2,59.3 609.5,52.5" stroke="#000000" fill="#ffffff" style="stroke-width: 2;"></path><text x="619.4765625" y="76.5" style="font-size: 16px; font-family: danielbd;"><tspan x="619.4765625">LocalStorage</tspan></text></g><g class="actor"><path d="M609.4765625,687.5C694.4,692.7 647.0,682.3 740.0,687.5C741.7,696.0 738.3,723.2 740.0,730.0C630.4,724.8 643.8,735.2 609.5,730.0C611.2,695.2 607.8,705.3 609.5,687.5" stroke="#000000" fill="#ffffff" style="stroke-width: 2;"></path><text x="619.4765625" y="711.5" style="font-size: 16px; font-family: danielbd;"><tspan x="619.4765625">LocalStorage</tspan></text></g><path d="M674.8,95.0C651.1,189.8 698.5,237.2 674.8,687.5" stroke="#000000" fill="none" style="stroke-width: 2;"></path><g class="actor"><path d="M760.0390625,52.5C782.3,47.4 866.9,57.6 887.3,52.5C885.6,69.8 889.0,84.8 887.3,95.0C790.6,100.1 825.2,89.9 760.0,95.0C758.3,59.3 761.7,78.0 760.0,52.5" stroke="#000000" fill="#ffffff" style="stroke-width: 2;"></path><text x="770.0390625" y="76.5" style="font-size: 16px; font-family: danielbd;"><tspan x="770.0390625">Lista HTML</tspan></text></g><g class="actor"><path d="M760.0390625,687.5C848.9,682.4 836.8,692.6 887.3,687.5C885.6,716.2 889.0,701.9 887.3,730.0C834.2,724.9 790.7,735.1 760.0,730.0C758.3,707.8 761.7,694.3 760.0,687.5" stroke="#000000" fill="#ffffff" style="stroke-width: 2;"></path><text x="770.0390625" y="711.5" style="font-size: 16px; font-family: danielbd;"><tspan x="770.0390625">Lista HTML</tspan></text></g><path d="M823.7,95.0C847.4,545.3 800.0,376.7 823.7,687.5" stroke="#000000" fill="none" style="stroke-width: 2;"></path><g class="signal"><text x="489.640625" y="122.75" style="font-size: 16px; font-family: danielbd;"><tspan x="489.640625">Pide datos iniciales</tspan></text><path d="M460.2,137.5C498.6,146.1 524.7,128.9 674.8,137.5" stroke="#000000" fill="none" style="stroke-width: 2; marker-end: url(&quot;#markerArrowBlock&quot;);"></path></g><g class="signal"><text x="470.2265625" y="165.25" style="font-size: 16px; font-family: danielbd;"><tspan x="470.2265625">Recibe datos si los hay</tspan></text><path d="M674.8,180.0C623.3,171.4 519.5,188.6 460.2,180.0" stroke="#000000" fill="none" style="stroke-width: 2; stroke-dasharray: 6, 2; marker-end: url(&quot;#markerArrowBlock&quot;);"></path></g><g class="signal"><text x="92.7734375" y="207.75" style="font-size: 16px; font-family: danielbd;"><tspan x="92.7734375">Ingresa nombre</tspan></text><path d="M53.9,222.5C210.6,214.3 110.9,230.7 258.4,222.5" stroke="#000000" fill="none" style="stroke-width: 2; marker-end: url(&quot;#markerArrowBlock&quot;);"></path></g><g class="note"><path d="M194.1171875,242.5C256.6,247.6 258.7,237.4 322.6,242.5C323.9,256.1 321.3,258.9 322.6,275.0C291.8,269.9 302.1,280.1 194.1,275.0C195.4,252.6 192.8,269.8 194.1,242.5" stroke="#000000" fill="#ffffff" style="stroke-width: 2;"></path><text x="199.1171875" y="261.5" style="font-size: 16px; font-family: danielbd;"><tspan x="199.1171875">Valida nombre</tspan></text></g><g class="signal"><text x="112.1171875" y="302.75" style="font-size: 16px; font-family: danielbd;"><tspan x="112.1171875">Ingresa dni</tspan></text><path d="M53.9,317.5C140.8,309.3 200.5,325.7 258.4,317.5" stroke="#000000" fill="none" style="stroke-width: 2; marker-end: url(&quot;#markerArrowBlock&quot;);"></path></g><g class="signal"><text x="311.8828125" y="345.25" style="font-size: 16px; font-family: danielbd;"><tspan x="311.8828125">Busca DNI</tspan></text><path d="M258.4,360.0C321.3,368.1 387.9,351.9 460.2,360.0" stroke="#000000" fill="none" style="stroke-width: 2; marker-end: url(&quot;#markerArrowBlock&quot;);"></path></g><g class="signal"><text x="268.3828125" y="387.75" style="font-size: 16px; font-family: danielbd;"><tspan x="268.3828125">Avísa si existe el DNI</tspan></text><path d="M460.2,402.5C427.9,394.4 313.8,410.6 258.4,402.5" stroke="#000000" fill="none" style="stroke-width: 2; stroke-dasharray: 6, 2; marker-end: url(&quot;#markerArrowBlock&quot;);"></path></g><g class="note"><path d="M196.609375,422.5C270.7,427.4 289.9,417.6 320.2,422.5C318.9,446.0 321.5,433.0 320.2,455.0C269.4,450.1 227.1,459.9 196.6,455.0C197.9,449.8 195.3,443.6 196.6,422.5" stroke="#000000" fill="#ffffff" style="stroke-width: 2;"></path><text x="201.609375" y="441.5" style="font-size: 16px; font-family: danielbd;"><tspan x="201.609375">Habilita botón</tspan></text></g><g class="signal"><text x="78.890625" y="482.75" style="font-size: 16px; font-family: danielbd;"><tspan x="78.890625">Muestra validación</tspan></text><path d="M258.4,497.5C140.1,489.3 135.2,505.7 53.9,497.5" stroke="#000000" fill="none" style="stroke-width: 2; stroke-dasharray: 6, 2; marker-end: url(&quot;#markerArrowBlock&quot;);"></path></g><g class="signal"><text x="63.8515625" y="525.25" style="font-size: 16px; font-family: danielbd;"><tspan x="63.8515625">Apreta botón agregar</tspan></text><path d="M53.9,540.0C209.3,531.8 102.9,548.2 258.4,540.0" stroke="#000000" fill="none" style="stroke-width: 2; marker-end: url(&quot;#markerArrowBlock&quot;);"></path></g><g class="signal"><text x="270.421875" y="567.75" style="font-size: 16px; font-family: danielbd;"><tspan x="270.421875">Envía nombre y DNI</tspan></text><path d="M258.4,582.5C427.9,590.6 290.7,574.4 460.2,582.5" stroke="#000000" fill="none" style="stroke-width: 2; marker-end: url(&quot;#markerArrowBlock&quot;);"></path></g><g class="signal"><text x="579.26171875" y="610.25" style="font-size: 16px; font-family: danielbd;"><tspan x="579.26171875">Agrega el nodo</tspan></text><path d="M460.2,625.0C736.4,610.5 695.1,639.5 823.7,625.0" stroke="#000000" fill="none" style="stroke-width: 2; marker-end: url(&quot;#markerArrowBlock&quot;);"></path></g><g class="signal"><text x="476.890625" y="652.75" style="font-size: 16px; font-family: danielbd;"><tspan x="476.890625">Actualiza los cambios</tspan></text><path d="M460.2,667.5C494.9,658.9 511.7,676.1 674.8,667.5" stroke="#000000" fill="none" style="stroke-width: 2; marker-end: url(&quot;#markerArrowBlock&quot;);"></path></g></svg>