<?xml version="1.0" encoding="utf-8" standalone="no"?><!DOCTYPE svg PUBLIC "-//W3C//DTD SVG 20010904//EN" "http://www.w3.org/TR/2001/REC-SVG-20010904/DTD/svg10.dtd"><svg xmlns="http://www.w3.org/2000/svg" width="880" height="655" xmlns:xlink="http://www.w3.org/1999/xlink"><source><![CDATA[Title: Baja estudiante
participant Usuario
participant Formulario
participant App
App->LocalStorage: Pide datos iniciales
LocalStorage-->App: Recibe datos si los hay
Usuario->Formulario: Ingresa DNI
Formulario->App: Busca DNI
App-->Formulario: Avísa si hay DNI
Note over Formulario: Habilita botón
Formulario-->Usuario: Muestra validación
Usuario->Formulario: Apreta botón eliminar
Formulario->App: Envía DNI
App->Lista HTML: Elimna el nodo
App->LocalStorage: Actualiza los cambios
]]></source><desc>Baja estudiante</desc><defs><marker viewBox="0 0 5 5" markerWidth="5" markerHeight="5" orient="auto" refX="5" refY="2.5" id="markerArrowBlock"><path d="M 0 0 L 5 2.5 L 0 5 z"></path></marker><marker viewBox="0 0 9.6 16" markerWidth="4" markerHeight="16" orient="auto" refX="9.6" refY="8" id="markerArrowOpen"><path d="M 9.6,8 1.92,16 0,13.7 5.76,8 0,2.286 1.92,0 9.6,8 z"></path></marker></defs><g class="title"><path d="M10,10C44.2,15.7 50.2,4.3 152.5,10.0C153.8,21.3 151.2,15.2 152.5,42.5C129.7,36.8 92.0,48.2 10.0,42.5C8.7,27.1 11.3,31.1 10.0,10.0" stroke="#000000" fill="#ffffff" style="stroke-width: 2;"></path><text x="15" y="29" style="font-size: 16px; font-family: danielbd;"><tspan x="15">Baja estudiante</tspan></text></g><g class="actor"><path d="M10,52.5C57.2,49.0 67.5,56.0 97.7,52.5C96.0,67.3 99.4,76.1 97.7,95.0C53.7,91.5 83.7,98.5 10.0,95.0C11.7,86.7 8.3,59.3 10.0,52.5" stroke="#000000" fill="#ffffff" style="stroke-width: 2;"></path><text x="20" y="76.5" style="font-size: 16px; font-family: danielbd;"><tspan x="20">Usuario</tspan></text></g><g class="actor"><path d="M10,592.5C24.0,589.0 42.0,596.0 97.7,592.5C99.4,624.8 96.0,620.1 97.7,635.0C68.0,638.5 33.0,631.5 10.0,635.0C11.7,615.3 8.3,603.9 10.0,592.5" stroke="#000000" fill="#ffffff" style="stroke-width: 2;"></path><text x="20" y="616.5" style="font-size: 16px; font-family: danielbd;"><tspan x="20">Usuario</tspan></text></g><path d="M53.9,95.0C34.0,512.9 73.8,473.1 53.9,592.5" stroke="#000000" fill="none" style="stroke-width: 2;"></path><g class="actor"><path d="M202.2578125,52.5C239.8,47.9 298.3,57.1 316.6,52.5C314.9,63.8 318.3,59.5 316.6,95.0C257.6,99.6 289.1,90.4 202.3,95.0C204.0,62.7 200.6,80.8 202.3,52.5" stroke="#000000" fill="#ffffff" style="stroke-width: 2;"></path><text x="212.2578125" y="76.5" style="font-size: 16px; font-family: danielbd;"><tspan x="212.2578125">Formulario</tspan></text></g><g class="actor"><path d="M202.2578125,592.5C289.1,597.1 229.7,587.9 316.6,592.5C314.9,628.2 318.3,611.4 316.6,635.0C253.3,630.4 289.1,639.6 202.3,635.0C204.0,609.7 200.6,599.3 202.3,592.5" stroke="#000000" fill="#ffffff" style="stroke-width: 2;"></path><text x="212.2578125" y="616.5" style="font-size: 16px; font-family: danielbd;"><tspan x="212.2578125">Formulario</tspan></text></g><path d="M259.4,95.0C279.3,310.8 239.5,512.9 259.4,592.5" stroke="#000000" fill="none" style="stroke-width: 2;"></path><g class="actor"><path d="M395.65625,52.5C437.8,50.3 442.2,54.7 451.0,52.5C449.3,87.0 452.7,77.5 451.0,95.0C408.9,92.8 434.7,97.2 395.7,95.0C394.0,88.2 397.4,74.3 395.7,52.5" stroke="#000000" fill="#ffffff" style="stroke-width: 2;"></path><text x="405.65625" y="76.5" style="font-size: 16px; font-family: danielbd;"><tspan x="405.65625">App</tspan></text></g><g class="actor"><path d="M395.65625,592.5C404.5,590.3 408.9,594.7 451.0,592.5C449.3,607.3 452.7,604.1 451.0,635.0C423.7,637.2 415.6,632.8 395.7,635.0C394.0,604.5 397.4,626.7 395.7,592.5" stroke="#000000" fill="#ffffff" style="stroke-width: 2;"></path><text x="405.65625" y="616.5" style="font-size: 16px; font-family: danielbd;"><tspan x="405.65625">App</tspan></text></g><path d="M423.4,95.0C443.3,352.8 403.5,473.1 423.4,592.5" stroke="#000000" fill="none" style="stroke-width: 2;"></path><g class="actor"><path d="M572.6015625,52.5C605.3,57.7 682.3,47.3 703.2,52.5C701.5,68.6 704.9,69.0 703.2,95.0C603.9,89.8 635.0,100.2 572.6,95.0C570.9,69.0 574.3,88.2 572.6,52.5" stroke="#000000" fill="#ffffff" style="stroke-width: 2;"></path><text x="582.6015625" y="76.5" style="font-size: 16px; font-family: danielbd;"><tspan x="582.6015625">LocalStorage</tspan></text></g><g class="actor"><path d="M572.6015625,592.5C593.5,597.7 603.9,587.3 703.2,592.5C701.5,617.7 704.9,614.6 703.2,635.0C657.7,629.8 603.9,640.2 572.6,635.0C574.3,602.9 570.9,624.8 572.6,592.5" stroke="#000000" fill="#ffffff" style="stroke-width: 2;"></path><text x="582.6015625" y="616.5" style="font-size: 16px; font-family: danielbd;"><tspan x="582.6015625">LocalStorage</tspan></text></g><path d="M637.9,95.0C657.8,473.1 618.0,315.3 637.9,592.5" stroke="#000000" fill="none" style="stroke-width: 2;"></path><g class="actor"><path d="M723.1640625,52.5C780.2,47.4 763.7,57.6 850.4,52.5C852.1,59.3 848.7,88.2 850.4,95.0C819.9,100.1 753.7,89.9 723.2,95.0C724.9,62.7 721.5,61.2 723.2,52.5" stroke="#000000" fill="#ffffff" style="stroke-width: 2;"></path><text x="733.1640625" y="76.5" style="font-size: 16px; font-family: danielbd;"><tspan x="733.1640625">Lista HTML</tspan></text></g><g class="actor"><path d="M723.1640625,592.5C789.9,587.4 804.7,597.6 850.4,592.5C852.1,614.0 848.7,608.3 850.4,635.0C789.1,629.9 743.5,640.1 723.2,635.0C724.9,610.7 721.5,617.4 723.2,592.5" stroke="#000000" fill="#ffffff" style="stroke-width: 2;"></path><text x="733.1640625" y="616.5" style="font-size: 16px; font-family: danielbd;"><tspan x="733.1640625">Lista HTML</tspan></text></g><path d="M786.8,95.0C766.9,408.6 806.7,451.3 786.8,592.5" stroke="#000000" fill="none" style="stroke-width: 2;"></path><g class="signal"><text x="452.765625" y="122.75" style="font-size: 16px; font-family: danielbd;"><tspan x="452.765625">Pide datos iniciales</tspan></text><path d="M423.4,137.5C471.1,146.1 603.6,128.9 637.9,137.5" stroke="#000000" fill="none" style="stroke-width: 2; marker-end: url(&quot;#markerArrowBlock&quot;);"></path></g><g class="signal"><text x="433.3515625" y="165.25" style="font-size: 16px; font-family: danielbd;"><tspan x="433.3515625">Recibe datos si los hay</tspan></text><path d="M637.9,180.0C480.2,171.4 564.0,188.6 423.4,180.0" stroke="#000000" fill="none" style="stroke-width: 2; stroke-dasharray: 6, 2; marker-end: url(&quot;#markerArrowBlock&quot;);"></path></g><g class="signal"><text x="107.578125" y="207.75" style="font-size: 16px; font-family: danielbd;"><tspan x="107.578125">Ingresa DNI</tspan></text><path d="M53.9,222.5C86.7,214.3 103.2,230.7 259.4,222.5" stroke="#000000" fill="none" style="stroke-width: 2; marker-end: url(&quot;#markerArrowBlock&quot;);"></path></g><g class="signal"><text x="293.9609375" y="250.25" style="font-size: 16px; font-family: danielbd;"><tspan x="293.9609375">Busca DNI</tspan></text><path d="M259.4,265.0C384.0,271.6 298.8,258.4 423.4,265.0" stroke="#000000" fill="none" style="stroke-width: 2; marker-end: url(&quot;#markerArrowBlock&quot;);"></path></g><g class="signal"><text x="269.4140625" y="292.75" style="font-size: 16px; font-family: danielbd;"><tspan x="269.4140625">Avísa si hay DNI</tspan></text><path d="M423.4,307.5C397.1,314.1 364.1,300.9 259.4,307.5" stroke="#000000" fill="none" style="stroke-width: 2; stroke-dasharray: 6, 2; marker-end: url(&quot;#markerArrowBlock&quot;);"></path></g><g class="note"><path d="M197.640625,327.5C250.2,332.4 217.4,322.6 321.2,327.5C322.5,354.8 319.9,346.3 321.2,360.0C217.4,364.9 260.3,355.1 197.6,360.0C196.3,351.6 198.9,349.1 197.6,327.5" stroke="#000000" fill="#ffffff" style="stroke-width: 2;"></path><text x="202.640625" y="346.5" style="font-size: 16px; font-family: danielbd;"><tspan x="202.640625">Habilita botón</tspan></text></g><g class="signal"><text x="79.40625" y="387.75" style="font-size: 16px; font-family: danielbd;"><tspan x="79.40625">Muestra validación</tspan></text><path d="M259.4,402.5C86.7,394.3 190.1,410.7 53.9,402.5" stroke="#000000" fill="none" style="stroke-width: 2; stroke-dasharray: 6, 2; marker-end: url(&quot;#markerArrowBlock&quot;);"></path></g><g class="signal"><text x="63.8515625" y="430.25" style="font-size: 16px; font-family: danielbd;"><tspan x="63.8515625">Apreta botón eliminar</tspan></text><path d="M53.9,445.0C226.5,436.8 210.1,453.2 259.4,445.0" stroke="#000000" fill="none" style="stroke-width: 2; marker-end: url(&quot;#markerArrowBlock&quot;);"></path></g><g class="signal"><text x="296.640625" y="472.75" style="font-size: 16px; font-family: danielbd;"><tspan x="296.640625">Envía DNI</tspan></text><path d="M259.4,487.5C389.6,480.9 366.2,494.1 423.4,487.5" stroke="#000000" fill="none" style="stroke-width: 2; marker-end: url(&quot;#markerArrowBlock&quot;);"></path></g><g class="signal"><text x="542.02734375" y="515.25" style="font-size: 16px; font-family: danielbd;"><tspan x="542.02734375">Elimna el nodo</tspan></text><path d="M423.4,530.0C613.4,544.5 690.0,515.5 786.8,530.0" stroke="#000000" fill="none" style="stroke-width: 2; marker-end: url(&quot;#markerArrowBlock&quot;);"></path></g><g class="signal"><text x="440.015625" y="557.75" style="font-size: 16px; font-family: danielbd;"><tspan x="440.015625">Actualiza los cambios</tspan></text><path d="M423.4,572.5C586.4,581.1 602.4,563.9 637.9,572.5" stroke="#000000" fill="none" style="stroke-width: 2; marker-end: url(&quot;#markerArrowBlock&quot;);"></path></g></svg>