<?xml version="1.0" encoding="utf-8" standalone="no"?><!DOCTYPE svg PUBLIC "-//W3C//DTD SVG 20010904//EN" "http://www.w3.org/TR/2001/REC-SVG-20010904/DTD/svg10.dtd"><svg xmlns="http://www.w3.org/2000/svg" width="865" height="475" xmlns:xlink="http://www.w3.org/1999/xlink"><source><![CDATA[Title: Búsqueda estudiante
participant Usuario
participant Formulario
participant App
App->LocalStorage: Pide datos iniciales
LocalStorage-->App: Recibe datos si los hay
Usuario->Formulario: Ingresa nombre o apellido
Usuario->Formulario: Apreta botón buscar
Formulario->App: Envía texto
App->Lista HTML: Limpia la lista
App->Lista HTML: Agrega el nodo
]]></source><desc>Búsqueda estudiante</desc><defs><marker viewBox="0 0 5 5" markerWidth="5" markerHeight="5" orient="auto" refX="5" refY="2.5" id="markerArrowBlock"><path d="M 0 0 L 5 2.5 L 0 5 z"></path></marker><marker viewBox="0 0 9.6 16" markerWidth="4" markerHeight="16" orient="auto" refX="9.6" refY="8" id="markerArrowOpen"><path d="M 9.6,8 1.92,16 0,13.7 5.76,8 0,2.286 1.92,0 9.6,8 z"></path></marker></defs><g class="title"><path d="M10,10C55.1,2.5 40.1,17.5 198.0,10.0C199.3,33.9 196.7,37.3 198.0,42.5C122.5,50.0 55.1,35.0 10.0,42.5C11.3,15.2 8.7,21.3 10.0,10.0" stroke="#000000" fill="#ffffff" style="stroke-width: 2;"></path><text x="15" y="29" style="font-size: 16px; font-family: danielbd;"><tspan x="15">Búsqueda estudiante</tspan></text></g><g class="actor"><path d="M10,52.5C31.0,56.0 24.0,49.0 97.7,52.5C96.0,87.2 99.4,84.8 97.7,95.0C31.0,98.5 76.7,91.5 10.0,95.0C11.7,88.2 8.3,76.1 10.0,52.5" stroke="#000000" fill="#ffffff" style="stroke-width: 2;"></path><text x="20" y="76.5" style="font-size: 16px; font-family: danielbd;"><tspan x="20">Usuario</tspan></text></g><g class="actor"><path d="M10,412.5C67.6,416.0 31.3,409.0 97.7,412.5C99.4,422.7 96.0,444.8 97.7,455.0C76.7,451.5 83.7,458.5 10.0,455.0C11.7,434.7 8.3,445.2 10.0,412.5" stroke="#000000" fill="#ffffff" style="stroke-width: 2;"></path><text x="20" y="436.5" style="font-size: 16px; font-family: danielbd;"><tspan x="20">Usuario</tspan></text></g><path d="M53.9,95.0C41.2,361.7 66.6,323.8 53.9,412.5" stroke="#000000" fill="none" style="stroke-width: 2;"></path><g class="actor"><path d="M231.1953125,52.5C282.7,47.9 292.9,57.1 345.5,52.5C343.8,78.9 347.2,78.4 345.5,95.0C278.4,90.4 271.0,99.6 231.2,95.0C229.5,79.7 232.9,88.2 231.2,52.5" stroke="#000000" fill="#ffffff" style="stroke-width: 2;"></path><text x="241.1953125" y="76.5" style="font-size: 16px; font-family: danielbd;"><tspan x="241.1953125">Formulario</tspan></text></g><g class="actor"><path d="M231.1953125,412.5C258.6,417.1 309.5,407.9 345.5,412.5C343.8,444.3 347.2,419.3 345.5,455.0C318.1,450.4 316.6,459.6 231.2,455.0C232.9,436.5 229.5,423.0 231.2,412.5" stroke="#000000" fill="#ffffff" style="stroke-width: 2;"></path><text x="241.1953125" y="436.5" style="font-size: 16px; font-family: danielbd;"><tspan x="241.1953125">Formulario</tspan></text></g><path d="M288.4,95.0C275.7,336.3 301.1,194.8 288.4,412.5" stroke="#000000" fill="none" style="stroke-width: 2;"></path><g class="actor"><path d="M381.03125,52.5C423.0,54.7 403.0,50.3 436.4,52.5C434.7,81.9 438.1,74.1 436.4,95.0C394.3,92.8 404.0,97.2 381.0,95.0C382.7,59.3 379.3,63.2 381.0,52.5" stroke="#000000" fill="#ffffff" style="stroke-width: 2;"></path><text x="391.03125" y="76.5" style="font-size: 16px; font-family: danielbd;"><tspan x="391.03125">App</tspan></text></g><g class="actor"><path d="M381.03125,412.5C394.3,410.3 392.5,414.7 436.4,412.5C434.7,422.9 438.1,422.7 436.4,455.0C427.6,457.2 390.3,452.8 381.0,455.0C379.3,422.7 382.7,419.3 381.0,412.5" stroke="#000000" fill="#ffffff" style="stroke-width: 2;"></path><text x="391.03125" y="436.5" style="font-size: 16px; font-family: danielbd;"><tspan x="391.03125">App</tspan></text></g><path d="M408.7,95.0C396.0,264.0 421.4,293.8 408.7,412.5" stroke="#000000" fill="none" style="stroke-width: 2;"></path><g class="actor"><path d="M557.9765625,52.5C611.1,47.3 578.9,57.7 688.5,52.5C686.8,62.7 690.2,72.9 688.5,95.0C614.3,89.8 578.9,100.2 558.0,95.0C556.3,67.1 559.7,73.2 558.0,52.5" stroke="#000000" fill="#ffffff" style="stroke-width: 2;"></path><text x="567.9765625" y="76.5" style="font-size: 16px; font-family: danielbd;"><tspan x="567.9765625">LocalStorage</tspan></text></g><g class="actor"><path d="M557.9765625,412.5C604.9,407.3 608.9,417.7 688.5,412.5C690.2,448.2 686.8,424.3 688.5,455.0C663.5,449.8 652.8,460.2 558.0,455.0C559.7,448.2 556.3,444.8 558.0,412.5" stroke="#000000" fill="#ffffff" style="stroke-width: 2;"></path><text x="567.9765625" y="436.5" style="font-size: 16px; font-family: danielbd;"><tspan x="567.9765625">LocalStorage</tspan></text></g><path d="M623.3,95.0C610.6,274.0 636.0,210.5 623.3,412.5" stroke="#000000" fill="none" style="stroke-width: 2;"></path><g class="actor"><path d="M708.5390625,52.5C760.9,57.6 783.0,47.4 835.8,52.5C834.1,80.0 837.5,66.6 835.8,95.0C815.4,100.1 805.2,89.9 708.5,95.0C706.8,60.7 710.2,70.2 708.5,52.5" stroke="#000000" fill="#ffffff" style="stroke-width: 2;"></path><text x="718.5390625" y="76.5" style="font-size: 16px; font-family: danielbd;"><tspan x="718.5390625">Lista HTML</tspan></text></g><g class="actor"><path d="M708.5390625,412.5C805.2,407.4 751.0,417.6 835.8,412.5C834.1,444.3 837.5,422.7 835.8,455.0C815.4,460.1 728.9,449.9 708.5,455.0C710.2,419.3 706.8,431.0 708.5,412.5" stroke="#000000" fill="#ffffff" style="stroke-width: 2;"></path><text x="718.5390625" y="436.5" style="font-size: 16px; font-family: danielbd;"><tspan x="718.5390625">Lista HTML</tspan></text></g><path d="M772.2,95.0C759.5,336.3 784.9,171.2 772.2,412.5" stroke="#000000" fill="none" style="stroke-width: 2;"></path><g class="signal"><text x="438.140625" y="122.75" style="font-size: 16px; font-family: danielbd;"><tspan x="438.140625">Pide datos iniciales</tspan></text><path d="M408.7,137.5C460.2,146.1 481.5,128.9 623.3,137.5" stroke="#000000" fill="none" style="stroke-width: 2; marker-end: url(&quot;#markerArrowBlock&quot;);"></path></g><g class="signal"><text x="418.7265625" y="165.25" style="font-size: 16px; font-family: danielbd;"><tspan x="418.7265625">Recibe datos si los hay</tspan></text><path d="M623.3,180.0C588.9,188.6 443.1,171.4 408.7,180.0" stroke="#000000" fill="none" style="stroke-width: 2; stroke-dasharray: 6, 2; marker-end: url(&quot;#markerArrowBlock&quot;);"></path></g><g class="signal"><text x="63.8515625" y="207.75" style="font-size: 16px; font-family: danielbd;"><tspan x="63.8515625">Ingresa nombre o apellido</tspan></text><path d="M53.9,222.5C213.2,231.9 221.6,213.1 288.4,222.5" stroke="#000000" fill="none" style="stroke-width: 2; marker-end: url(&quot;#markerArrowBlock&quot;);"></path></g><g class="signal"><text x="82.03125" y="250.25" style="font-size: 16px; font-family: danielbd;"><tspan x="82.03125">Apreta botón buscar</tspan></text><path d="M53.9,265.0C152.8,274.4 123.4,255.6 288.4,265.0" stroke="#000000" fill="none" style="stroke-width: 2; marker-end: url(&quot;#markerArrowBlock&quot;);"></path></g><g class="signal"><text x="298.3515625" y="292.75" style="font-size: 16px; font-family: danielbd;"><tspan x="298.3515625">Envía texto</tspan></text><path d="M288.4,307.5C389.5,312.3 346.3,302.7 408.7,307.5" stroke="#000000" fill="none" style="stroke-width: 2; marker-end: url(&quot;#markerArrowBlock&quot;);"></path></g><g class="signal"><text x="529.78515625" y="335.25" style="font-size: 16px; font-family: danielbd;"><tspan x="529.78515625">Limpia la lista</tspan></text><path d="M408.7,350.0C531.8,335.5 498.6,364.5 772.2,350.0" stroke="#000000" fill="none" style="stroke-width: 2; marker-end: url(&quot;#markerArrowBlock&quot;);"></path></g><g class="signal"><text x="527.76171875" y="377.75" style="font-size: 16px; font-family: danielbd;"><tspan x="527.76171875">Agrega el nodo</tspan></text><path d="M408.7,392.5C670.9,378.0 623.9,407.0 772.2,392.5" stroke="#000000" fill="none" style="stroke-width: 2; marker-end: url(&quot;#markerArrowBlock&quot;);"></path></g></svg>